<svg xmlns="http://www.w3.org/2000/svg" version="1.1" xmlns:xlink="http://www.w3.org/1999/xlink" xmlns:svgjs="http://svgjs.dev/svgjs" width="1000" height="1000" viewBox="0 0 1000 1000"><rect width="1000" height="1000" fill="#ffffff"></rect><g transform="matrix(0.7,0,0,0.7,149.84897959183667,150.19913061224486)"><svg viewBox="0 0 343 343" data-background-color="#ffffff" preserveAspectRatio="xMidYMid meet" height="999" width="1000" xmlns="http://www.w3.org/2000/svg" xmlns:xlink="http://www.w3.org/1999/xlink"><g id="tight-bounds" transform="matrix(1,0,0,1,0.0740000000000407,0.07400000000001228)"><svg viewBox="0 0 342.85155851775386 342.85155851775386" height="342.85155851775386" width="342.85155851775386"><g><svg></svg></g><g><svg viewBox="0 0 342.85155851775386 342.85155851775386" height="342.85155851775386" width="342.85155851775386"><g><path d="M0 171.426c0-94.676 76.75-171.426 171.426-171.426 94.676 0 171.426 76.75 171.426 171.426 0 94.676-76.75 171.426-171.426 171.426-94.676 0-171.426-76.75-171.426-171.426zM171.426 340.123c93.169 0 168.697-75.528 168.697-168.697 0-93.169-75.528-168.697-168.697-168.697-93.169 0-168.697 75.528-168.697 168.697 0 93.169 75.528 168.697 168.697 168.697z" data-fill-palette-color="tertiary" fill="#233565" stroke="transparent"></path><ellipse rx="164.56874808852186" ry="164.56874808852186" cx="171.42577925887693" cy="171.42577925887693" fill="#233565" stroke="transparent" stroke-width="0" fill-opacity="1" data-fill-palette-color="tertiary"></ellipse></g><g transform="matrix(1,0,0,1,64.84655864529837,107.55087372471405)"><svg viewBox="0 0 213.1584412271571 127.74981106832576" height="127.74981106832576" width="213.1584412271571"><g><svg viewBox="0 0 213.1584412271571 127.74981106832576" height="127.74981106832576" width="213.1584412271571"><g><svg viewBox="0 0 213.1584412271571 127.74981106832576" height="127.74981106832576" width="213.1584412271571"><g transform="matrix(1,0,0,1,0,77.11730416459557)"><svg viewBox="0 0 213.1584412271571 50.63250690373018" height="50.63250690373018" width="213.1584412271571"><g id="textblocktransform"><svg viewBox="0 0 213.1584412271571 50.63250690373018" height="50.63250690373018" width="213.1584412271571" id="textblock"><g><svg viewBox="0 0 213.1584412271571 30.257966178859583" height="30.257966178859583" width="213.1584412271571"><g transform="matrix(1,0,0,1,0,0)"><svg width="213.1584412271571" viewBox="3.759999990463257 -36.5 264.1622314453125 37.5" height="30.257966178859583" data-palette-color="#ffffff"><path d="M24.1-5.05L35.69-33.96Q37.45-35.25 39.5-35.6L39.5-35.6 42.75-4.39Q42.9-2.42 43.77-1.6 44.65-0.78 46.95-0.61L46.95-0.61 46.8 0Q43.99-0.07 42.43 0.05 40.87 0.17 39.11 0.76L39.11 0.76 38.94 0.49Q39.4-0.29 39.21-2.1L39.21-2.1 36.35-30.49 23.8 0.95 22.09 0.15Q22-1.59 20.7-4.76L20.7-4.76 9.55-29.44 6.69-3.39Q6.59-2.54 6.82-2.01 7.06-1.49 7.95-1.04 8.84-0.59 10.6-0.24L10.6-0.24 10.5 0.2Q6.49-0.1 4.25 0L4.25 0Q4.05-0.2 3.96-0.49L3.96-0.49 7.64-32.45Q6.96-33.01 5.96-33.04 4.96-33.08 4.05-32.86L4.05-32.86 3.76-33.35Q7.4-35.4 10.4-35.4L10.4-35.4Q10.99-34.08 16.98-20.75 22.97-7.42 24.1-5.05L24.1-5.05ZM75.95-0.34L75.53 0 53.73 0Q53.29-1.03 53.29-2.39L53.29-2.39Q54.27-3.44 55.97-6.03 57.66-8.62 60.17-12.93 62.67-17.24 64.19-19.92 65.72-22.61 68.61-27.82 71.51-33.03 71.75-33.45L71.75-33.45 71.48-33.69 60.59-33.69Q59.2-33.64 58.16-33.28 57.13-32.91 56.31-32.13 55.49-31.35 54.93-30.48 54.37-29.61 53.64-28.2L53.64-28.2 52.95-28.59 54.73-35.35 55.15-35.69 76.68-35.21 77-34.64Q76.56-33.98 74.83-31.05L74.83-31.05Q73.34-28.44 71.43-25.37L71.43-25.37Q69.55-22.24 67.6-18.87L67.6-18.87 63.72-12.16Q62.38-9.81 57.25-1.49L57.25-1.49 69.65-2Q71.43-2.08 72.69-2.43 73.95-2.78 74.85-3.54 75.75-4.3 76.34-5.14 76.93-5.98 77.63-7.4L77.63-7.4 78.34-7.1 75.95-0.34ZM101.19-36.5L101.19-36.5Q109.35-36.5 113.74-31.35 118.13-26.2 118.13-17.09L118.13-17.09Q118.13-13.23 116.77-9.84 115.4-6.45 113.08-4.08 110.76-1.71 107.62-0.35 104.49 1 101.04 1L101.04 1Q97.43 1 94.33-0.28 91.23-1.56 88.95-3.93 86.66-6.3 85.37-9.9 84.08-13.5 84.08-17.9L84.08-17.9Q84.08-21.78 85.46-25.24 86.84-28.71 89.14-31.16 91.45-33.62 94.6-35.06 97.75-36.5 101.19-36.5ZM88.18-18.14L88.18-18.14Q88.18-14.55 88.95-11.56 89.72-8.57 91.01-6.52 92.3-4.47 94.05-3.05 95.8-1.64 97.72-0.99 99.65-0.34 101.73-0.34L101.73-0.34Q104.73-0.34 107.11-1.66 109.49-2.98 110.98-5.26 112.47-7.54 113.25-10.5 114.03-13.45 114.03-16.85L114.03-16.85Q114.03-21.26 112.92-24.8 111.81-28.34 109.93-30.53 108.05-32.71 105.67-33.86 103.29-35.01 100.63-35.01L100.63-35.01Q97.63-35.01 95.22-33.63 92.82-32.25 91.3-29.91 89.79-27.56 88.98-24.55 88.18-21.53 88.18-18.14ZM132.02-32.59L132.02-32.59 132.02-10.3Q132.02-7.62 132.54-5.82 133.05-4.03 133.96-2.95 134.88-1.88 136.16-1.43 137.44-0.98 138.98-0.98L138.98-0.98Q140.45-0.98 142.02-1.38 143.6-1.78 145.17-2.5 146.75-3.22 148.25-4.21 149.75-5.2 151.07-6.35L151.07-6.35 151.07-28.1Q151.07-29.71 150.92-30.8 150.77-31.88 150.38-32.54 149.99-33.2 149.28-33.48 148.58-33.76 147.77-33.76 146.97-33.76 146.77-33.74L146.77-33.74 146.67-34.2Q150.65-35.4 154.31-35.4L154.31-35.4Q154.83-34.11 154.83-32.59L154.83-32.59 154.83-4.39Q154.83-3.39 155.01-2.69 155.19-1.98 155.63-1.49 156.07-1 156.82-0.7 157.56-0.39 158.68-0.2L158.68-0.2 158.46 0.39Q157 0.2 155.93 0.1 154.85 0 154.12 0L154.12 0Q153.43 0 152.59 0.1 151.75 0.2 150.72 0.39L150.72 0.39 150.58 0.15Q151.07-0.56 151.07-2.44L151.07-2.44 151.07-4.44Q147.04-1.56 143.78-0.28 140.52 1 137.69 1L137.69 1Q136 1 134.32 0.61 132.63 0.22 131.29-0.73 129.95-1.68 129.11-3.26 128.26-4.83 128.26-7.2L128.26-7.2 128.26-28.1Q128.26-29.71 128.12-30.8 127.97-31.88 127.58-32.54 127.19-33.2 126.48-33.48 125.77-33.76 124.97-33.76 124.16-33.76 123.97-33.74L123.97-33.74 123.87-34.2Q127.85-35.4 131.54-35.4L131.54-35.4Q132.02-34.01 132.02-32.59ZM192.79-3.1L192.79-3.1 192.79-7.1Q192.79-10.55 191.96-11.73 191.13-12.92 188.47-12.74L188.47-12.74 188.37-13.21Q192.4-14.4 196.03-14.4L196.03-14.4Q196.52-13.06 196.52-11.6L196.52-11.6 196.52-4.59Q196.52-2.29 196.99-1.66L196.99-1.66 196.84-1.39Q194.91-1.39 192.67-0.79 190.42-0.2 187.86 0.4 185.29 1 182.63 1L182.63 1Q178.95 1 175.77-0.35 172.6-1.71 170.31-4.13 168.03-6.54 166.73-10.08 165.42-13.62 165.42-17.8L165.42-17.8Q165.42-21.63 166.46-24.77 167.49-27.91 169.29-30.05 171.08-32.2 173.6-33.68 176.11-35.16 179.01-35.83 181.9-36.5 185.17-36.5L185.17-36.5Q190.76-36.5 195.67-34.2L195.67-34.2Q194.81-31.15 193.23-27.76L193.23-27.76 192.57-28Q192.96-30.91 192.74-32.79L192.74-32.79Q191.66-33.4 190.62-33.8 189.57-34.2 188.39-34.44 187.22-34.67 185.87-34.75 184.51-34.84 182.83-34.84L182.83-34.84Q180.58-34.84 178.64-34.27 176.7-33.69 175.01-32.37 173.33-31.05 172.13-29.06 170.94-27.08 170.25-24.11 169.57-21.14 169.57-17.41L169.57-17.41Q169.57-13.82 170.79-10.64 172.01-7.47 174.03-5.3 176.04-3.13 178.68-1.87 181.31-0.61 184.12-0.61L184.12-0.61Q186.9-0.61 188.8-1.11 190.69-1.61 192.79-3.1ZM233.61-32.59L233.61-32.59 233.61-4.39Q233.61-2.42 234.41-1.51 235.22-0.61 237.46-0.2L237.46-0.2 237.27 0.39Q234.56 0.02 233.14 0 231.73-0.02 229.53 0.39L229.53 0.39 229.36 0.15Q229.87-0.56 229.87-2.44L229.87-2.44 229.87-18.51Q219.1-18.75 211.17-18.51L211.17-18.51 211.17-2.49Q211.17-0.76 211.93 0L211.93 0 211.78 0.24Q208.58-0.24 205.58 0.34L205.58 0.34 205.41 0.1Q206.65-1 207.03-1.88 207.41-2.76 207.41-4.44L207.41-4.44 207.41-28.1Q207.41-31.54 206.59-32.74 205.77-33.94 203.11-33.74L203.11-33.74 203.01-34.2Q207.04-35.4 210.66-35.4L210.66-35.4Q211.17-34.11 211.17-32.59L211.17-32.59 211.17-20.24Q220.47-19.87 229.87-20.24L229.87-20.24 229.87-28.1Q229.87-31.54 229.04-32.74 228.21-33.94 225.57-33.74L225.57-33.74 225.48-34.2Q229.5-35.4 233.12-35.4L233.12-35.4Q233.61-34.06 233.61-32.59ZM245.71-35.35L245.71-35.35Q246.62-35.45 247.2-34.3L247.2-34.3 256.02-18.04Q263.73-30.08 264.71-32.59L264.71-32.59Q265.02-33.5 264.15-34.02 263.27-34.55 261.22-34.74L261.22-34.74 261.12-35.21Q265.51-35.62 267.66-34.96L267.66-34.96Q268.05-34.77 267.86-34.35L267.86-34.35Q267.44-33.52 266.95-32.63 266.46-31.74 257.11-16.75L257.11-16.75 257.11-4.39Q257.11-2.42 257.91-1.51 258.7-0.61 260.95-0.2L260.95-0.2 260.75 0.39Q258.04 0.02 256.63 0 255.21-0.02 253.01 0.39L253.01 0.39 252.87 0.15Q253.35-0.56 253.35-2.44L253.35-2.44 253.35-15.8 245.61-29.81Q244.64-31.45 243.88-32.15 243.12-32.86 242.29-32.97 241.46-33.08 240.32-32.91L240.32-32.91 239.95-33.35Q243.54-35.16 245.71-35.35Z" opacity="1" transform="matrix(1,0,0,1,0,0)" fill="#ffffff" class="wordmark-text-0" data-fill-palette-color="quaternary" id="text-0"></path></svg></g></svg></g><g transform="matrix(1,0,0,1,0,37.40114580250004)"><svg viewBox="0 0 213.1584412271571 13.231361101230142" height="13.231361101230142" width="213.1584412271571"><g transform="matrix(1,0,0,1,0,0)"><svg width="213.1584412271571" viewBox="0.699999988079071 -26.149999618530273 438.9700012207031 27.25" height="13.231361101230142" data-palette-color="#ffffff"><path d="M39.25-17.3L39.25-17.3Q39.25-21.2 38.05-25L38.05-25 51.45-25Q51.5-24.25 51.5-22.8L51.5-22.8Q51.5-16.4 49.8-12.2L49.8-12.2Q45.35-10.9 42.4-8.75 39.45-6.6 39.45-4.33 39.45-2.05 41.5 0L41.5 0 28.9 0Q25.8-4.6 23.65-10.65L23.65-10.65Q22-6.9 22-4.33 22-1.75 23.45 0L23.45 0 10.9 0Q7.05-5.1 4.35-11.8 1.65-18.5 0.7-25L0.7-25 14-25Q14.85-14.25 18.4-7.15L18.4-7.15Q20.95-11.5 20.95-17.7L20.95-17.7Q20.95-21.05 20.1-25L20.1-25 32-25Q32.8-15.1 36.7-7.15L36.7-7.15Q39.25-11.85 39.25-17.3ZM72.75-14.95L72.75-14.95 77.45-14.65Q78.15-14.65 78.5-14.7L78.5-14.7 76.15-10.3 75.7-10.3Q74.75-10.3 73-10.83 71.25-11.35 70.5-11.35L70.5-11.35Q68.45-11.35 67.25-8.7L67.25-8.7Q67.05-6.25 66.95-3.8L66.95-3.8Q69.55-3.3 71.05-3.3L71.05-3.3 71.5-3.3Q73.65-3.3 74.92-4.25 76.2-5.2 76.75-7.65L76.75-7.65 82.75-7.4Q82-3.1 80.75 0L80.75 0 56.2 0Q55.2-6.75 55.2-13.4 55.2-20.05 55.9-25L55.9-25 82.7-25Q81.8-19.6 81.1-17.4L81.1-17.4Q78.15-17.25 75.7-17.2L75.7-17.2Q76.1-18.35 76.1-19.35L76.1-19.35Q76.1-21.75 72.5-21.75L72.5-21.75Q71.15-21.75 69.5-21.45L69.5-21.45Q68.4-16.7 67.8-13.1L67.8-13.1Q69.8-14.95 72.75-14.95ZM101.65-3.25L101.65-3.25Q105.05-3.25 107.2-3.8L107.2-3.8Q106.3-9.35 102.1-12.05L102.1-12.05Q101.65-7.6 101.65-3.25ZM89.05-15L89.05-15Q89.05-20.25 90-25L90-25 117.75-25Q115.5-18 109.15-14.85L109.15-14.85Q114.9-12.8 118.35-9.15L118.35-9.15Q117.9-4.5 116.2 0L116.2 0 91.05 0Q89.05-6.95 89.05-15ZM102.5-15.5L102.5-15.5Q104.95-16.15 107.05-17.75 109.15-19.35 110.05-21.7L110.05-21.7Q106.05-21.7 103.55-21.45L103.55-21.45Q102.95-18.55 102.5-15.5ZM153.54-26.15L153.54-26.15Q163.19-26.15 169.24-23.75L169.24-23.75Q171.39-19.45 171.39-15.05L171.39-15.05Q171.39-9.4 167.54-5.25L167.54-5.25Q161.94 0.7 152.39 0.7L152.39 0.7Q149.09 0.7 143.44-0.05L143.44-0.05Q141.49-10.1 141.49-18.6L141.49-18.6Q141.49-21.55 141.79-25L141.79-25Q149.84-26.15 153.54-26.15ZM155.04-22.4L155.04-22.4Q154.14-13 154.14-8.93 154.14-4.85 154.29-2.3L154.29-2.3Q156.99-3.75 158.52-7.18 160.04-10.6 160.04-14.13 160.04-17.65 158.77-19.9 157.49-22.15 155.04-22.4ZM194.44-14.95L194.44-14.95 199.14-14.65Q199.84-14.65 200.19-14.7L200.19-14.7 197.84-10.3 197.39-10.3Q196.44-10.3 194.69-10.83 192.94-11.35 192.19-11.35L192.19-11.35Q190.14-11.35 188.94-8.7L188.94-8.7Q188.74-6.25 188.64-3.8L188.64-3.8Q191.24-3.3 192.74-3.3L192.74-3.3 193.19-3.3Q195.34-3.3 196.61-4.25 197.89-5.2 198.44-7.65L198.44-7.65 204.44-7.4Q203.69-3.1 202.44 0L202.44 0 177.89 0Q176.89-6.75 176.89-13.4 176.89-20.05 177.59-25L177.59-25 204.39-25Q203.49-19.6 202.79-17.4L202.79-17.4Q199.84-17.25 197.39-17.2L197.39-17.2Q197.79-18.35 197.79-19.35L197.79-19.35Q197.79-21.75 194.19-21.75L194.19-21.75Q192.84-21.75 191.19-21.45L191.19-21.45Q190.09-16.7 189.49-13.1L189.49-13.1Q191.49-14.95 194.44-14.95ZM228.69-17.05L228.69-17.05Q228.69-20.7 227.39-25L227.39-25 240.74-25Q240.79-24.25 240.79-22.8L240.79-22.8Q240.79-16.4 239.09-12.25L239.09-12.25Q234.49-10.25 231.71-8.22 228.94-6.2 228.94-4.05 228.94-1.9 230.79 0L230.79 0 218.24 0Q209.79-10.75 207.64-25L207.64-25 221.29-25Q221.49-15.85 225.99-7.15L225.99-7.15Q228.69-11.65 228.69-17.05ZM263.13-14.95L263.13-14.95 267.83-14.65Q268.53-14.65 268.88-14.7L268.88-14.7 266.53-10.3 266.08-10.3Q265.13-10.3 263.38-10.83 261.63-11.35 260.88-11.35L260.88-11.35Q258.83-11.35 257.63-8.7L257.63-8.7Q257.43-6.25 257.33-3.8L257.33-3.8Q259.93-3.3 261.43-3.3L261.43-3.3 261.88-3.3Q264.03-3.3 265.31-4.25 266.58-5.2 267.13-7.65L267.13-7.65 273.13-7.4Q272.38-3.1 271.13 0L271.13 0 246.58 0Q245.58-6.75 245.58-13.4 245.58-20.05 246.28-25L246.28-25 273.08-25Q272.18-19.6 271.48-17.4L271.48-17.4Q268.53-17.25 266.08-17.2L266.08-17.2Q266.48-18.35 266.48-19.35L266.48-19.35Q266.48-21.75 262.88-21.75L262.88-21.75Q261.53-21.75 259.88-21.45L259.88-21.45Q258.78-16.7 258.18-13.1L258.18-13.1Q260.18-14.95 263.13-14.95ZM289.63-3.85Q291.98-3.3 294.13-3.3 296.28-3.3 297.56-4.28 298.83-5.25 299.43-7.65L299.43-7.65 305.43-7.45Q304.68-2.95 303.43 0L303.43 0 278.88 0Q277.93-6.4 277.93-13.25 277.93-20.1 278.63-25L278.63-25 293.03-25Q289.73-12.35 289.63-3.85L289.63-3.85ZM312.18-0.15L312.18-0.15Q307.73-5.85 307.73-11.85 307.73-17.85 312.73-22 317.73-26.15 325.53-26.15L325.53-26.15Q329.68-26.15 333.78-24.9L333.78-24.9Q337.38-20.35 337.38-15.15L337.38-15.15Q337.38-8.6 332.03-3.75 326.68 1.1 319.08 1.1L319.08 1.1Q315.83 1.1 312.18-0.15ZM319.78-21.8L319.78-21.8Q318.03-18.8 318.03-14.75 318.03-10.7 319.8-7.28 321.58-3.85 324.68-2.35L324.68-2.35Q327.03-5.35 327.03-9.3 327.03-13.25 325.1-16.65 323.18-20.05 319.78-21.8ZM353.63-7.25L353.63-6.25Q353.63-3.4 353.88 0L353.88 0 342.88 0Q340.83-7.95 340.83-16.9L340.83-16.9Q340.83-21.45 341.38-25L341.38-25 368.48-25Q369.93-19.35 370.08-11.55L370.08-11.55Q362.68-8.25 353.63-7.25L353.63-7.25ZM353.68-10.7L353.68-10.7Q356.88-11.1 359.03-12.3L359.03-12.3Q358.23-17.6 354.73-21.7L354.73-21.7Q353.93-16.75 353.68-10.7ZM392.92-14.95L392.92-14.95 397.62-14.65Q398.32-14.65 398.67-14.7L398.67-14.7 396.32-10.3 395.87-10.3Q394.92-10.3 393.17-10.83 391.42-11.35 390.67-11.35L390.67-11.35Q388.62-11.35 387.42-8.7L387.42-8.7Q387.22-6.25 387.12-3.8L387.12-3.8Q389.72-3.3 391.22-3.3L391.22-3.3 391.67-3.3Q393.82-3.3 395.1-4.25 396.37-5.2 396.92-7.65L396.92-7.65 402.92-7.4Q402.17-3.1 400.92 0L400.92 0 376.37 0Q375.37-6.75 375.37-13.4 375.37-20.05 376.07-25L376.07-25 402.87-25Q401.97-19.6 401.27-17.4L401.27-17.4Q398.32-17.25 395.87-17.2L395.87-17.2Q396.27-18.35 396.27-19.35L396.27-19.35Q396.27-21.75 392.67-21.75L392.67-21.75Q391.32-21.75 389.67-21.45L389.67-21.45Q388.57-16.7 387.97-13.1L387.97-13.1Q389.97-14.95 392.92-14.95ZM436.82-16.3L436.82-16.3 436.77-14.6Q432.77-12.45 426.77-11.25L426.77-11.25Q431.07-10.1 435.07-10.1L435.07-10.1 436.12-10.1Q438.87-6.05 439.67 0L439.67 0 426.72 0Q426.22-3.5 424.7-6.03 423.17-8.55 420.97-9.45L420.97-9.45Q420.92-8.6 420.92-6.05 420.92-3.5 421.22 0L421.22 0 410.32 0Q408.87-7.25 408.87-13.48 408.87-19.7 409.57-25L409.57-25 435.67-25Q436.82-19.95 436.82-16.3ZM422.02-21.65L422.02-21.65Q421.42-17.25 421.12-13L421.12-13Q423.87-13.4 425.62-14.95L425.62-14.95Q424.67-18.3 422.02-21.65Z" opacity="1" transform="matrix(1,0,0,1,0,0)" fill="#ffffff" class="slogan-text-1" data-fill-palette-color="quaternary" id="text-1"></path></svg></g></svg></g></svg></g></svg></g><g transform="matrix(1,0,0,1,59.47185566301047,0)"><svg viewBox="0 0 94.21472990113617 69.97412454095512" height="69.97412454095512" width="94.21472990113617"><g><svg xmlns="http://www.w3.org/2000/svg" xmlns:xlink="http://www.w3.org/1999/xlink" version="1.1" x="0" y="0" viewBox="7.5 18.434999465942383 85.0009994506836 63.131004333496094" enable-background="new 0 0 100 100" xml:space="preserve" height="69.97412454095512" width="94.21472990113617" class="icon-icon-0" data-fill-palette-color="quaternary" id="icon-0"><g fill="#ffffff" data-fill-palette-color="quaternary"><path d="M89.405 18.435H10.595c-1.706 0-3.095 1.389-3.095 3.095v56.941c0 1.706 1.389 3.095 3.095 3.095h78.811c1.707 0 3.095-1.389 3.095-3.095V77.14 32.027 21.529C92.5 19.823 91.112 18.435 89.405 18.435zM10.595 19.673h78.811c1.023 0 1.857 0.833 1.857 1.856v9.075c-0.068-0.01-0.136-0.021-0.207-0.021H8.951c-0.073 0-0.143 0.011-0.213 0.021v-9.076C8.738 20.506 9.571 19.673 10.595 19.673zM91.263 77.14c0 0.114-0.093 0.206-0.207 0.206H8.951c-0.113 0-0.206-0.092-0.206-0.206V32.027c0-0.113 0.093-0.206 0.206-0.206h82.104c0.114 0 0.207 0.093 0.207 0.206V77.14zM89.405 80.327H10.595c-0.992 0-1.798-0.784-1.848-1.764 0.067 0.01 0.135 0.021 0.204 0.021h82.104c0.068 0 0.133-0.011 0.197-0.02C91.202 79.544 90.396 80.327 89.405 80.327z" fill="#ffffff" data-fill-palette-color="quaternary"></path><path d="M28.178 27.787c1.45 0 2.63-1.18 2.63-2.63 0-1.451-1.18-2.631-2.63-2.631s-2.631 1.18-2.631 2.631C25.547 26.607 26.728 27.787 28.178 27.787zM28.178 23.765c0.768 0 1.393 0.624 1.393 1.393 0 0.768-0.625 1.393-1.393 1.393-0.769 0-1.393-0.625-1.393-1.393C26.785 24.389 27.409 23.765 28.178 23.765z" fill="#ffffff" data-fill-palette-color="quaternary"></path><path d="M21.458 27.787c1.451 0 2.631-1.18 2.631-2.63 0-1.451-1.18-2.631-2.631-2.631-1.45 0-2.63 1.18-2.63 2.631C18.828 26.607 20.008 27.787 21.458 27.787zM21.458 23.765c0.769 0 1.393 0.624 1.393 1.393 0 0.768-0.624 1.393-1.393 1.393-0.768 0-1.393-0.625-1.393-1.393C20.065 24.389 20.69 23.765 21.458 23.765z" fill="#ffffff" data-fill-palette-color="quaternary"></path><path d="M14.738 27.787c1.451 0 2.631-1.18 2.631-2.63 0-1.451-1.18-2.631-2.631-2.631-1.45 0-2.63 1.18-2.63 2.631C12.108 26.607 13.288 27.787 14.738 27.787zM14.738 23.765c0.769 0 1.393 0.624 1.393 1.393 0 0.768-0.624 1.393-1.393 1.393-0.768 0-1.393-0.625-1.393-1.393C13.346 24.389 13.971 23.765 14.738 23.765z" fill="#ffffff" data-fill-palette-color="quaternary"></path></g><path d="M26.598 65.915c-0.624 0-1.395-0.429-2.289-1.276-1.605-1.519-2.16-2.371-1.2-3.405l8.79-8.811-8.774-8.782c-0.676-0.676-0.57-1.195-0.401-1.57 0.242-0.544 0.814-1.117 1.479-1.781 0.829-0.829 1.542-1.542 2.241-1.542 0.342 0 0.679 0.172 1.033 0.526l11.769 11.755c0.311 0.254 0.521 0.659 0.564 1.134 0.048 0.537-0.134 1.152-0.452 1.533L27.53 65.514C27.243 65.787 26.941 65.915 26.598 65.915zM23.846 42.57c-0.009 0 0.027 0.068 0.154 0.194l9.211 9.221c0.241 0.242 0.241 0.633 0 0.875L24 62.093c-0.093 0.1-0.125 0.147-0.133 0.166 0.012 0.047 0.125 0.377 1.292 1.48 0.979 0.927 1.42 0.938 1.438 0.938v0.619l0.01-0.62c-0.001 0.001-0.001 0.001-0.001 0.001-0.003 0 0.02-0.012 0.061-0.05l11.777-11.767c0.061-0.077 0.151-0.357 0.131-0.589-0.013-0.145-0.063-0.246-0.162-0.328L26.601 40.148c-0.144-0.143-0.215-0.171-0.215-0.171-0.182 0.06-0.886 0.764-1.307 1.184-0.531 0.532-1.077 1.078-1.227 1.413C23.85 42.571 23.848 42.57 23.846 42.57z" fill="#ffffff" data-fill-palette-color="quaternary"></path><path d="M55.834 71.436H40.498c-1.594 0-1.92-1.234-1.92-3.088s0.326-3.088 1.92-3.088h15.336c1.503 0 1.787 1.085 1.787 3.088C57.621 70.396 57.346 71.436 55.834 71.436zM40.498 66.497c-0.366 0-0.683 0-0.683 1.851s0.316 1.851 0.683 1.851h15.336c0.354 0 0.55 0 0.55-1.851s-0.219-1.851-0.55-1.851H40.498z" fill="#ffffff" data-fill-palette-color="quaternary"></path></svg></g></svg></g><g></g></svg></g></svg></g></svg></g></svg></g><defs></defs></svg><rect width="342.85155851775386" height="342.85155851775386" fill="none" stroke="none" visibility="hidden"></rect></g></svg></g></svg>